<svg width="45" height="45" viewBox="0 0 45 45" fill="none" xmlns="http://www.w3.org/2000/svg">
<path fill-rule="evenodd" clip-rule="evenodd" d="M12.2343 4.50086C14.0033 4.35963 15.6826 3.66385 17.033 2.51261C18.5584 1.21349 20.4965 0.5 22.5 0.5C24.5036 0.5 26.4417 1.21349 27.967 2.51261C29.3175 3.66385 30.9968 4.35963 32.7658 4.50086C34.7635 4.66052 36.639 5.52651 38.0561 6.94359C39.4731 8.36068 40.3391 10.2362 40.4988 12.2339C40.639 14.0021 41.3348 15.6824 42.487 17.0326C43.7862 18.5579 44.4997 20.496 44.4997 22.4996C44.4997 24.5032 43.7862 26.4413 42.487 27.9666C41.3358 29.3171 40.64 30.9964 40.4988 32.7654C40.3391 34.7631 39.4731 36.6386 38.0561 38.0556C36.639 39.4727 34.7635 40.3387 32.7658 40.4984C30.9968 40.6396 29.3175 41.3354 27.967 42.4866C26.4417 43.7857 24.5036 44.4992 22.5 44.4992C20.4965 44.4992 18.5584 43.7857 17.033 42.4866C15.6826 41.3354 14.0033 40.6396 12.2343 40.4984C10.2366 40.3387 8.3611 39.4727 6.94402 38.0556C5.52694 36.6386 4.66095 34.7631 4.50129 32.7654C4.36005 30.9964 3.66428 29.3171 2.51304 27.9666C1.21392 26.4413 0.500427 24.5032 0.500427 22.4996C0.500427 20.496 1.21392 18.5579 2.51304 17.0326C3.66428 15.6821 4.36005 14.0028 4.50129 12.2339C4.66095 10.2362 5.52694 8.36068 6.94402 6.94359C8.3611 5.52651 10.2366 4.66052 12.2343 4.50086ZM32.6943 18.9439C33.1952 18.4252 33.4724 17.7306 33.4661 17.0095C33.4599 16.2885 33.1707 15.5987 32.6608 15.0889C32.1509 14.579 31.4612 14.2898 30.7401 14.2835C30.0191 14.2772 29.3244 14.5544 28.8058 15.0554L19.75 24.1111L16.1943 20.5554C15.6756 20.0544 14.981 19.7772 14.2599 19.7835C13.5389 19.7898 12.8492 20.079 12.3393 20.5889C11.8294 21.0987 11.5402 21.7885 11.5339 22.5095C11.5277 23.2306 11.8049 23.9252 12.3058 24.4439L17.8058 29.9439C18.3215 30.4594 19.0208 30.749 19.75 30.749C20.4792 30.749 21.1786 30.4594 21.6943 29.9439L32.6943 18.9439Z" fill="white"/>
</svg>
