<svg width="50" height="49" viewBox="0 0 50 49" fill="none" xmlns="http://www.w3.org/2000/svg">
<path d="M24.2349 0H25.7359C31.8692 0 37.6796 2.543 43.1673 7.629C47.0248 12.1954 49.1472 16.3287 49.5346 20.0291C49.8251 21.7769 49.9704 22.887 49.9704 23.3594V25.367C49.9704 28.6107 48.8406 32.3662 46.5809 36.6334C43.2883 41.8926 38.5996 45.5457 32.5148 47.5927C29.432 48.3642 27.0191 48.75 25.2759 48.75H24.6949C18.3195 48.75 12.4042 46.2464 6.94882 41.2391C2.3166 36.2318 0.000488281 30.4136 0.000488281 23.7845V23.5011C0.000488281 23.2806 0.0489087 23.0917 0.14575 22.9342C0.14575 22.824 0.0973291 22.7689 0.000488281 22.7689C0.629954 18.0765 1.91309 14.2817 3.84991 11.3844C6.91654 6.5189 11.6456 3.05475 18.0371 0.992006C20.4258 0.330669 22.4918 0 24.2349 0ZM20.8455 15.565L20.9907 20.0291C20.9907 20.1708 20.8455 20.3204 20.555 20.4778H18.0371V25.5087H20.555C20.7002 25.5087 20.8455 25.6583 20.9907 25.9575V38.3576L21.0634 39.2315H26.317V25.8158C26.3493 25.6111 26.4461 25.5087 26.6075 25.5087H30.8927C31.0864 25.5087 31.3366 23.9262 31.6432 20.7613V20.4778H26.6075C26.4138 20.4778 26.317 20.3834 26.317 20.1944V16.7224C26.317 15.2422 27.2047 14.4234 28.9801 14.266H31.9338V9.94368C31.9338 9.66025 30.9008 9.51853 28.8349 9.51853H28.0843C24.6788 9.51853 22.4595 10.7625 21.4265 13.2504C21.2328 13.77 21.0392 14.5415 20.8455 15.565Z" fill="#FF8049"/>
</svg>
